<?xml version="1.0" standalone="no"?>
<svg xmlns:xlink="http://www.w3.org/1999/xlink" id="wave" style="transform:rotate(180deg); transition: 0.3s" viewBox="0 0 1440 170" version="1.1" xmlns="http://www.w3.org/2000/svg"><defs><linearGradient id="sw-gradient-0" x1="0" x2="0" y1="1" y2="0"><stop stop-color="rgba(243, 106, 62, 1)" offset="0%"/><stop stop-color="rgba(255, 179, 11, 1)" offset="100%"/></linearGradient></defs><path style="transform:translate(0, 0px); opacity:1" fill="url(#sw-gradient-0)" d="M0,17L180,0L360,85L540,51L720,119L900,34L1080,17L1260,68L1440,17L1620,51L1800,85L1980,136L2160,85L2340,0L2520,68L2700,68L2880,85L3060,17L3240,136L3420,119L3600,0L3780,34L3960,0L4140,17L4320,136L4320,170L4140,170L3960,170L3780,170L3600,170L3420,170L3240,170L3060,170L2880,170L2700,170L2520,170L2340,170L2160,170L1980,170L1800,170L1620,170L1440,170L1260,170L1080,170L900,170L720,170L540,170L360,170L180,170L0,170Z"/><defs><linearGradient id="sw-gradient-1" x1="0" x2="0" y1="1" y2="0"><stop stop-color="rgba(243, 106, 62, 1)" offset="0%"/><stop stop-color="rgba(255, 179, 11, 1)" offset="100%"/></linearGradient></defs><path style="transform:translate(0, 50px); opacity:0.9" fill="url(#sw-gradient-1)" d="M0,85L180,102L360,34L540,119L720,17L900,17L1080,85L1260,34L1440,51L1620,34L1800,51L1980,68L2160,34L2340,51L2520,119L2700,51L2880,85L3060,68L3240,0L3420,153L3600,153L3780,17L3960,102L4140,0L4320,34L4320,170L4140,170L3960,170L3780,170L3600,170L3420,170L3240,170L3060,170L2880,170L2700,170L2520,170L2340,170L2160,170L1980,170L1800,170L1620,170L1440,170L1260,170L1080,170L900,170L720,170L540,170L360,170L180,170L0,170Z"/></svg>